<?xml version="1.0" encoding="iso-8859-1"?>
<!-- Generator: Adobe Illustrator 21.0.0, SVG Export Plug-In . SVG Version: 6.00 Build 0)  -->
<svg xmlns="http://www.w3.org/2000/svg" xmlns:xlink="http://www.w3.org/1999/xlink" version="1.1" id="Capa_1" x="0px" y="0px" viewBox="0 0 512 512" style="enable-background:new 0 0 512 512;" xml:space="preserve" width="512" height="512">
<g>
	<path style="fill-rule:evenodd;clip-rule:evenodd;" d="M206.388,179.265c11.304-11.304,16.189-27.856,12.275-43.886l-32.674,32.674   c-5.857,5.857-15.354,5.857-21.211,0l-18.829-18.829c-5.857-5.857-5.857-15.354,0-21.211c5.857-5.857,15.354-5.857,21.211,0   l8.223,8.223l26.555-26.555c-18.477-14.291-44.711-12.59-61.217,3.917c-18.131,18.131-18.131,47.536,0,65.667   C158.853,197.397,188.256,197.397,206.388,179.265z"/>
	<path style="fill-rule:evenodd;clip-rule:evenodd;" d="M360.738,0H77C37.325,0,5,32.325,5,72v425c0,8.284,6.717,15,15,15h295.089   c8.262,0,15-6.738,15-15C330.083,355.832,330,214.668,330,73.5C330,45.697,341.345,19.275,360.738,0z M65.033,432   c-8.262,0-15-6.738-15-15c0-8.262,6.739-15,15-15s15,6.738,15,15C80.034,425.261,73.295,432,65.033,432z M65.033,372   c-8.262,0-15-6.739-15-15s6.739-15,15-15s15,6.738,15,15S73.295,372,65.033,372z M65.033,312c-8.262,0-15-6.739-15-15   s6.739-15,15-15s15,6.738,15,15S73.295,312,65.033,312z M119.51,92.387c28.226-28.226,73.428-29.994,103.744-4.021l18.834-18.833   c5.857-5.857,15.354-5.857,21.211,0c5.857,5.857,5.857,15.354,0,21.211l-21.413,21.413c14.839,29.523,8.897,65.135-14.287,88.32   c-29.85,29.85-78.239,29.85-108.089,0C89.66,170.627,89.66,122.237,119.51,92.387z M270.033,432h-145c-8.284,0-15-6.716-15-15   s6.716-15,15-15h145c8.284,0,15,6.716,15,15S278.317,432,270.033,432z M270.033,372h-145c-8.284,0-15-6.716-15-15s6.716-15,15-15   h145c8.284,0,15,6.716,15,15S278.317,372,270.033,372z M270.033,312h-145c-8.284,0-15-6.716-15-15s6.716-15,15-15h145   c8.284,0,15,6.716,15,15S278.317,312,270.033,312z"/>
	<path style="fill-rule:evenodd;clip-rule:evenodd;" d="M485.42,21.579C472.106,8.265,453.728,0,433.5,0   c-20.228,0-38.607,8.264-51.921,21.579C368.264,34.893,360,53.272,360,73.5v188.498c0,8.284,6.716,15,15,15h117   c8.284,0,15-6.716,15-15V73.5C507,53.273,498.735,34.894,485.42,21.579z"/>
</g>















</svg>
