<svg height="597pt" viewBox="-19 -18 597 597.33206" width="597pt" xmlns="http://www.w3.org/2000/svg"><path d="m440.535156 379.964844 9.15625-219.980469h-29.566406v49.996094h-19.996094v-49.996094h-99.992187v49.996094h-20v-49.996094h-29.566407l9.160157 219.980469zm0 0"/><path d="m400.128906 89.992188c0-16.566407-13.433594-29.996094-30-29.996094h-39.996094c-16.566406 0-29.996093 13.429687-29.996093 29.996094v49.996093h99.992187zm0 0"/><path d="m560.113281 0h-439.960937v509.953125c0 2.402344-.128906 4.800781-.371094 7.191406-.089844.917969-.277344 1.796875-.410156 2.710938-.210938 1.425781-.375 2.867187-.667969 4.269531-.222656 1.078125-.539063 2.117188-.820313 3.1875-.28125 1.066406-.558593 2.390625-.929687 3.546875-.371094 1.164063-.808594 2.234375-1.21875 3.339844-.410156 1.113281-.734375 2.101562-1.164063 3.109375-.429687 1.011718-1.058593 2.222656-1.59375 3.320312-.464843.945313-.886718 1.910156-1.382812 2.824219-.601562 1.089844-1.28125 2.117187-1.929688 3.179687-.542968.867188-1.050781 1.769532-1.621093 2.621094-.699219.996094-1.46875 1.996094-2.210938 2.996094-.628906.820312-1.214843 1.671875-1.871093 2.460938-.648438.792968-1.613282 1.789062-2.433594 2.679687-.820313.890625-1.402344 1.566406-2.144532 2.300781-.097656.097656-.1875.210938-.277343.308594h411.011719c27.601562-.035156 49.960937-22.398438 49.996093-49.996094zm-327.191406 143.066406c1.886719-1.964844 4.496094-3.078125 7.21875-3.078125h39.996094v-49.996093c.035156-27.601563 22.402343-49.960938 49.996093-49.996094h39.996094c27.601563.035156 49.960938 22.394531 49.996094 49.996094v49.996093h39.996094c2.730468 0 5.335937 1.109375 7.226562 3.074219 1.882813 1.96875 2.890625 4.621094 2.773438 7.34375l-10 239.980469c-.222656 5.355469-4.636719 9.582031-10 9.578125h-199.980469c-5.359375.003906-9.773437-4.222656-10-9.578125l-10-239.980469c-.109375-2.722656.894531-5.375 2.78125-7.339844zm-52.773437 296.894532h19.996093v19.996093h-19.996093zm339.96875 59.996093h-339.96875v-20h339.96875zm0-40h-299.972657v-19.996093h299.972657zm0 0"/><path d="m.164062 139.988281v369.964844c.046876 27.589844 22.402344 49.949219 49.996094 49.996094 27.597656-.035157 49.960938-22.394531 49.992188-49.996094v-369.964844h-39.996094v379.964844h-19.996094v-379.964844zm0 0"/></svg>