<svg xmlns="http://www.w3.org/2000/svg" xmlns:xlink="http://www.w3.org/1999/xlink" width="61" height="86" viewBox="0 0 61 86"><defs><path id="8tiba" d="M560.88 1805.183l-14.06-17.573-2.241 1.792 14.061 17.57a12.936 12.936 0 0 1 2.827 8.063v35.103h-20.97c-7.405 0-13.43-6.025-13.43-13.43v-5.204H524.2v5.203c0 8.986 7.312 16.297 16.297 16.297H562.9c.793 0 1.433-.64 1.433-1.433v-36.534a15.827 15.827 0 0 0-3.453-9.854z"/><path id="8tibb" d="M539.963 1767h-28.666c-3.952 0-7.167 3.215-7.167 7.167v51.6c0 3.951 3.215 7.166 7.167 7.166h25.8v-2.866h-25.8c-2.371 0-4.3-1.93-4.3-4.3v-51.6c0-2.371 1.929-4.3 4.3-4.3h28.666c2.371 0 4.3 1.929 4.3 4.3v41.566h2.867v-41.566c0-3.952-3.215-7.167-7.167-7.167z"/><path id="8tibc" d="M535.67 1805.7v-35.83h2.87v35.83z"/><path id="8tibd" d="M528.5 1831.5v-17.2h2.87v17.2z"/><path id="8tibe" d="M528.5 1799.96v-31.53h2.87v31.53z"/><path id="8tibf" d="M511.3 1792.8v-18.63h2.87v18.63z"/><path id="8tibg" d="M518.47 1785.64v-11.47h2.87v11.47z"/><path id="8tibh" d="M519.9 1822.9h-5.733v-5.733h5.733zm1.433-8.6h-8.6c-.79 0-1.433.64-1.433 1.433v8.6c0 .793.642 1.434 1.433 1.434h8.6c.791 0 1.434-.641 1.434-1.434v-8.6c0-.792-.643-1.433-1.434-1.433z"/><path id="8tibi" d="M528.496 1800.8a3.741 3.741 0 0 1 2.631 1.177l19.263 20.468 2.088-1.965-19.265-20.47a6.592 6.592 0 0 0-4.636-2.076 6.51 6.51 0 0 0-4.73 1.794l-.145.14a6.617 6.617 0 0 0-.38 8.976l12.346 14.577v4.435c-.002 7.92 4.98 15.106 12.397 17.884l1.006-2.685c-6.304-2.36-10.538-8.468-10.536-15.199v-4.96c0-.337-.12-.667-.34-.927l-12.68-14.974c-1.27-1.51-1.176-3.705.286-5.168.73-.691 1.685-1.034 2.695-1.028z"/></defs><g><g transform="translate(-504 -1767)"><g><use fill="#5d5d60" xlink:href="#8tiba"/></g><g><use fill="#fa7f4c" xlink:href="#8tibb"/></g><g><use fill="#fa7f4c" xlink:href="#8tibc"/></g><g><use fill="#fa7f4c" xlink:href="#8tibd"/></g><g><use fill="#fa7f4c" xlink:href="#8tibe"/></g><g><use fill="#fa7f4c" xlink:href="#8tibf"/></g><g><use fill="#fa7f4c" xlink:href="#8tibg"/></g><g><use fill="#fa7f4c" xlink:href="#8tibh"/></g><g><use fill="#5d5d60" xlink:href="#8tibi"/></g></g></g></svg>