<svg xmlns="http://www.w3.org/2000/svg" xmlns:xlink="http://www.w3.org/1999/xlink" width="64" height="86" viewBox="0 0 64 86"><defs><path id="78rma" d="M1001.885 1831.537h-8.596v-17.2h8.596zm1.435-20.067h-11.467c-.791 0-1.433.642-1.433 1.433v20.067c0 .792.642 1.433 1.433 1.433h11.467c.792 0 1.433-.641 1.433-1.433v-20.067c0-.791-.641-1.433-1.433-1.433z"/><path id="78rmb" d="M1021.957 1831.537h-8.6v-17.2h8.6zm1.433-20.067h-11.467c-.791 0-1.433.642-1.433 1.433v20.067c0 .792.642 1.433 1.433 1.433h11.467c.792 0 1.433-.641 1.433-1.433v-20.067c0-.791-.641-1.433-1.433-1.433z"/><path id="78rmc" d="M1001.885 1802.853h-8.596v-28.656h8.596zm1.435-31.523h-11.467c-.791 0-1.433.642-1.433 1.433v31.534c0 .791.642 1.433 1.433 1.433h11.467c.792 0 1.433-.642 1.433-1.433v-31.534c0-.791-.641-1.433-1.433-1.433z"/><path id="78rmd" d="M1021.957 1802.853h-8.6v-28.656h8.6zm1.433-31.523h-11.467c-.791 0-1.433.642-1.433 1.433v31.534c0 .791.642 1.433 1.433 1.433h11.467c.792 0 1.433-.642 1.433-1.433v-31.534c0-.791-.641-1.433-1.433-1.433z"/><path id="78rme" d="M1033.423 1840.133v-75.373l2.867-2.867v78.24zM984.69 1765.6h45.867v74.533H984.69zm-5.733-3.707l2.856 2.867v75.373h-2.856zm52.44.83H983.85l-2.867-2.856h53.28zm7.76 78.844v-83.134c0-.791-.642-1.433-1.434-1.433h-60.2c-.791 0-1.433.642-1.433 1.433v83.134c0 .791.642 1.433 1.433 1.433h60.2c.792 0 1.434-.642 1.434-1.433z"/></defs><g><g transform="translate(-976 -1757)"><g><use fill="#5d5d60" xlink:href="#78rma"/></g><g><use fill="#5d5d60" xlink:href="#78rmb"/></g><g><use fill="#5d5d60" xlink:href="#78rmc"/></g><g><use fill="#5d5d60" xlink:href="#78rmd"/></g><g><use fill="#fa7f4c" xlink:href="#78rme"/></g></g></g></svg>