<svg xmlns="http://www.w3.org/2000/svg" xmlns:xlink="http://www.w3.org/1999/xlink" width="86" height="86" viewBox="0 0 86 86"><defs><path id="k67la" d="M796.325 1819.623a5.734 5.734 0 0 1-5.728-5.728c0-3.16 2.569-5.728 5.728-5.728 3.16 0 5.728 2.569 5.728 5.728a5.734 5.734 0 0 1-5.728 5.728zm.005-14.323c-4.743 0-8.6 3.857-8.6 8.6 0 4.743 3.857 8.6 8.6 8.6 4.743 0 8.6-3.857 8.6-8.6 0-4.743-3.857-8.6-8.6-8.6z"/><path id="k67lb" d="M799.2 1819.63v5.923l-2.073-1.382a1.427 1.427 0 0 0-1.59 0l-2.07 1.382v-5.923H790.6v8.6a1.432 1.432 0 0 0 2.229 1.192l3.504-2.336 3.505 2.336a1.44 1.44 0 0 0 1.472.072c.466-.25.757-.735.757-1.264v-8.6z"/><path id="k67lc" d="M771.97 1775.2v-2.87h18.63v2.87z"/><path id="k67ld" d="M759.07 1783.8v-2.87h45.87v2.87z"/><path id="k67le" d="M759.07 1792.4v-2.87h31.53v2.87z"/><path id="k67lf" d="M796.33 1792.4v-2.87h8.6v2.87z"/><path id="k67lg" d="M759.07 1801v-2.87h45.87v2.87z"/><path id="k67lh" d="M759.07 1809.6v-2.87h17.2v2.87z"/><path id="k67li" d="M759.07 1816.77v-2.87h7.17v2.87z"/><path id="k67lj" d="M771.97 1816.77v-2.87h4.3v2.87z"/><path id="k67lk" d="M822.137 1766.6h-8.6v-1.433c0-2.371 1.929-4.3 4.3-4.3 2.37 0 4.3 1.929 4.3 4.3v1.433zm-4.3-8.6c-3.952 0-7.167 3.215-7.167 7.167v2.866c0 .792.64 1.434 1.433 1.434h11.467c.793 0 1.433-.642 1.433-1.434v-2.866c0-3.952-3.214-7.167-7.166-7.167z"/><path id="k67ll" d="M817.837 1758h-60.2c-3.952 0-7.167 3.215-7.167 7.167v68.8h2.867v-68.8c0-2.371 1.929-4.3 4.3-4.3h54.47a7.129 7.129 0 0 0-1.437 4.3v71.666c0 2.371-1.93 4.3-4.3 4.3h-54.467V1844h54.467c3.952 0 7.167-3.215 7.167-7.167v-71.666c0-2.371 1.929-4.3 4.3-4.3a1.433 1.433 0 1 0 0-2.867z"/><path id="k67lm" d="M746.167 1841.13c-2.371 0-4.3-1.93-4.3-4.3v-1.433H799.2v1.433c0 1.613.535 3.102 1.436 4.3h-54.47zm60.2 0c-2.371 0-4.3-1.93-4.3-4.3v-2.867c0-.792-.64-1.433-1.434-1.433h-60.2c-.79 0-1.433.64-1.433 1.433v2.867c0 3.952 3.215 7.167 7.167 7.167h60.2c.792 0 1.433-.64 1.433-1.434 0-.792-.64-1.433-1.433-1.433z"/></defs><g><g transform="translate(-739 -1758)"><g><use fill="#fa7f4c" xlink:href="#k67la"/></g><g><use fill="#fa7f4c" xlink:href="#k67lb"/></g><g><use fill="#5d5d60" xlink:href="#k67lc"/></g><g><use fill="#5d5d60" xlink:href="#k67ld"/></g><g><use fill="#5d5d60" xlink:href="#k67le"/></g><g><use fill="#5d5d60" xlink:href="#k67lf"/></g><g><use fill="#5d5d60" xlink:href="#k67lg"/></g><g><use fill="#5d5d60" xlink:href="#k67lh"/></g><g><use fill="#5d5d60" xlink:href="#k67li"/></g><g><use fill="#5d5d60" xlink:href="#k67lj"/></g><g><use fill="#fa7f4c" xlink:href="#k67lk"/></g><g><use fill="#fa7f4c" xlink:href="#k67ll"/></g><g><use fill="#fa7f4c" xlink:href="#k67lm"/></g></g></g></svg>