<svg xmlns="http://www.w3.org/2000/svg" xmlns:xlink="http://www.w3.org/1999/xlink" width="56" height="56" viewBox="0 0 56 56"><defs><path id="37iea" d="M909.691 1345.432a1.093 1.093 0 0 1-1.094-1.09 1.093 1.093 0 0 1 2.188 0c0 .6-.49 1.09-1.094 1.09zm0-4.372a3.285 3.285 0 0 0-3.281 3.281 3.285 3.285 0 0 0 3.281 3.281 3.285 3.285 0 0 0 3.281-3.28 3.285 3.285 0 0 0-3.28-3.282z"/><path id="37ieb" d="M949.719 1345.438h-32.454a7.7 7.7 0 0 0 0-2.188h32.454a1.095 1.095 0 0 1 0 2.188zm-40.032 4.365a5.472 5.472 0 0 1-5.468-5.464 5.467 5.467 0 0 1 5.468-5.464c3.055 0 5.47 2.486 5.47 5.464 0 3.053-2.486 5.464-5.47 5.464zm-9.406-49.428a1.095 1.095 0 0 1 0-2.188h9.407c.603 0 1.093.491 1.093 1.094v37.486a7.7 7.7 0 0 0-2.187 0v-35.298c0-.604-.49-1.094-1.094-1.094zm24.719 2.188v8.312a1.094 1.094 0 0 0 1.7.91l2.675-1.783 2.675 1.783a1.094 1.094 0 0 0 1.7-.91v-8.313h5.469v13.782H919.53v-13.782zm2.188 0h4.365v6.268l-1.578-1.054a1.087 1.087 0 0 0-1.21 0l-1.577 1.054zm2.187 15.968h6.563v9.407l-2.625-1.97a1.093 1.093 0 0 0-1.313 0l-2.625 1.97zm16.406 22.532h-26.25v-22.532h7.657v11.594a1.094 1.094 0 0 0 1.75.875l3.718-2.79 3.719 2.79a1.094 1.094 0 0 0 1.75-.875v-11.594h7.656zm3.938 0h-1.75v-23.626c0-.604-.49-1.093-1.094-1.093h-5.469v-14.875c0-.604-.49-1.094-1.093-1.094h-21.875c-.605 0-1.094.49-1.094 1.094v39.593h-.738a7.61 7.61 0 0 0-3.637-3.637v-38.144a3.285 3.285 0 0 0-3.282-3.281h-9.406a3.285 3.285 0 0 0-3.281 3.281 3.285 3.285 0 0 0 3.281 3.282h6.125v34.862a7.672 7.672 0 0 0-4.375 6.919c0 4.221 3.435 7.656 7.657 7.656a7.672 7.672 0 0 0 6.918-4.375h33.113a3.285 3.285 0 0 0 3.281-3.281 3.285 3.285 0 0 0-3.281-3.282z"/><path id="37iec" d="M942.504 1338.875c.604 0 1.093-.49 1.093-1.094v-2.187a1.094 1.094 0 1 0-2.187 0v2.187c0 .604.49 1.094 1.094 1.094z"/><path id="37ied" d="M942.504 1330.13a1.094 1.094 0 1 1-.001 2.188 1.094 1.094 0 0 1 0-2.188z"/><path id="37iee" d="M938.124 1334.5c-.604 0-1.094.49-1.094 1.094v2.187a1.094 1.094 0 1 0 2.188 0v-2.187c0-.604-.49-1.094-1.094-1.094z"/></defs><g><g transform="translate(-897 -1296)"><g><use fill="#5d5d60" xlink:href="#37iea"/></g><g><use fill="#fa7f4c" xlink:href="#37ieb"/></g><g><use fill="#5d5d60" xlink:href="#37iec"/></g><g><use fill="#5d5d60" xlink:href="#37ied"/></g><g><use fill="#5d5d60" xlink:href="#37iee"/></g></g></g></svg>