<svg xmlns="http://www.w3.org/2000/svg" xmlns:xlink="http://www.w3.org/1999/xlink" width="86" height="62" viewBox="0 0 86 62"><defs><path id="nrhja" d="M287.065 1837.843a5.734 5.734 0 0 1-5.728-5.728c0-3.16 2.569-5.728 5.728-5.728 3.16 0 5.728 2.569 5.728 5.728 0 3.16-2.569 5.728-5.728 5.728zm.005-14.323c-4.743 0-8.6 3.857-8.6 8.6 0 4.743 3.857 8.6 8.6 8.6 4.743 0 8.6-3.857 8.6-8.6 0-4.743-3.857-8.6-8.6-8.6z"/><path id="nrhjb" d="M335.795 1837.843a5.734 5.734 0 0 1-5.728-5.728c0-3.16 2.569-5.728 5.728-5.728 3.16 0 5.728 2.569 5.728 5.728a5.734 5.734 0 0 1-5.728 5.728zm.005-14.323c-4.743 0-8.6 3.857-8.6 8.6 0 4.743 3.857 8.6 8.6 8.6 4.743 0 8.6-3.857 8.6-8.6 0-4.743-3.857-8.6-8.6-8.6z"/><path id="nrhjc" d="M330.067 1813.49v-10.033h11.466v-2.867h-12.9c-.792 0-1.433.642-1.433 1.433v12.9c0 .793.64 1.434 1.433 1.434h21.5v-2.867h-20.066z"/><path id="nrhjd" d="M268.43 1827.83v-2.87h8.6v2.87z"/><path id="nrhje" d="M297.1 1827.83v-2.87h24.37v2.87z"/><path id="nrhjf" d="M345.83 1827.83v-2.87h5.73v2.87z"/><path id="nrhjg" d="M272.73 1793.43v-2.87h50.17v2.87z"/><path id="nrhjh" d="M285.63 1833.56v-2.87h2.87v2.87z"/><path id="nrhji" d="M334.37 1833.56v-2.87h2.87v2.87z"/><path id="nrhjj" d="M272.73 1781.96v-2.87h20.07v2.87z"/><path id="nrhjk" d="M267 1781.96v-2.87h2.87v2.87z"/><path id="nrhjl" d="M322.9 1784.82h-54.467c-.79 0-1.433.642-1.433 1.433v45.867c0 .793.642 1.433 1.433 1.433H279.9v-2.866h-10.033v-43h51.6v43h-27.234v2.866H322.9c.793 0 1.433-.64 1.433-1.433v-45.867c0-.79-.64-1.433-1.433-1.433z"/><path id="nrhjm" d="M352.775 1815.585l-12.9-20.067a1.434 1.434 0 0 0-1.205-.658h-15.767c-.792 0-1.433.642-1.433 1.433v35.834c0 .792.64 1.433 1.433 1.433h5.734v-2.867h-4.3v-32.966h13.55l12.25 19.054v13.912h-7.167v2.867h8.6c.792 0 1.433-.64 1.433-1.433v-15.767a1.43 1.43 0 0 0-.228-.775z"/></defs><g><g transform="translate(-267 -1779)"><g><use fill="#fa7f4c" xlink:href="#nrhja"/></g><g><use fill="#fa7f4c" xlink:href="#nrhjb"/></g><g><use fill="#5d5d60" xlink:href="#nrhjc"/></g><g><use fill="#5d5d60" xlink:href="#nrhjd"/></g><g><use fill="#5d5d60" xlink:href="#nrhje"/></g><g><use fill="#5d5d60" xlink:href="#nrhjf"/></g><g><use fill="#5d5d60" xlink:href="#nrhjg"/></g><g><use fill="#5d5d60" xlink:href="#nrhjh"/></g><g><use fill="#5d5d60" xlink:href="#nrhji"/></g><g><use fill="#5d5d60" xlink:href="#nrhjj"/></g><g><use fill="#5d5d60" xlink:href="#nrhjk"/></g><g><use fill="#fa7f4c" xlink:href="#nrhjl"/></g><g><use fill="#fa7f4c" xlink:href="#nrhjm"/></g></g></g></svg>