<svg xmlns="http://www.w3.org/2000/svg" xmlns:xlink="http://www.w3.org/1999/xlink" width="85" height="82" viewBox="0 0 85 82">
		<defs>
				<path id="95zxa" d="M1090 1009v-67h19v67z" />
				<path id="95zxb" d="M1120 1009v-67h19v67z" />
				<path id="95zxc" d="M1085 1014v-77h29v77z" />
				<path id="95zxe" d="M1106 975.5a2.5 2.5 0 1 1 5 0 2.5 2.5 0 0 1-5 0z" />
				<path id="95zxf" d="M1102.5 975h4.585a1.502 1.502 0 0 1 1.415-1 1.5 1.5 0 1 1-1.415 2h-4.585a.5.5 0 0 1 0-1z" />
				<path id="95zxg" d="M1072 1016v-1h85v1z" />
				<path id="95zxh" d="M1115 1014v-77h29v77z" />
				<path id="95zxj" d="M1136 975.5a2.5 2.5 0 1 1 5 0 2.5 2.5 0 0 1-5 0z" />
				<path id="95zxk" d="M1132.5 975h4.585a1.502 1.502 0 0 1 1.415-1 1.5 1.5 0 1 1-1.415 2h-4.585a.5.5 0 0 1 0-1z" />
				<path id="95zxl" d="M1083 1014v-79h63v79" />
				<clipPath id="95zxd">
						<use fill="#fff" xlink:href="#95zxa" />
				</clipPath>
				<clipPath id="95zxi">
						<use fill="#fff" xlink:href="#95zxb" />
				</clipPath>
		</defs>
		<g>
				<g transform="translate(-1072 -934)">
						<g>
								<g>
										<g>
												<use fill="#fa7f4c" xlink:href="#95zxc" />
										</g>
										<g opacity=".5">
												<use fill="#fff" fill-opacity="0" stroke="#fff" stroke-miterlimit="50" stroke-width="2" clip-path="url(&quot;#95zxd&quot;)" xlink:href="#95zxa" />
										</g>
										<g>
												<use fill="#fa7f4c" xlink:href="#95zxe" />
										</g>
										<g>
												<use fill="#fff" xlink:href="#95zxf" />
										</g>
								</g>
								<g>
										<use fill="#ededed" xlink:href="#95zxg" />
								</g>
						</g>
						<g transform="matrix(-1 0 0 1 2259 0)">
								<g>
										<g>
												<use fill="#fa7f4c" xlink:href="#95zxh" />
										</g>
										<g opacity=".5">
												<use fill="#fff" fill-opacity="0" stroke="#fff" stroke-miterlimit="50" stroke-width="2" clip-path="url(&quot;#95zxi&quot;)" xlink:href="#95zxb" />
										</g>
										<g>
												<use fill="#fa7f4c" xlink:href="#95zxj" />
										</g>
										<g>
												<use fill="#fff" xlink:href="#95zxk" />
										</g>
								</g>
						</g>
						<g>
								<use fill="#fff" fill-opacity="0" stroke="#fa7f4c" stroke-miterlimit="50" stroke-width="2" xlink:href="#95zxl" />
						</g>
				</g>
		</g>
</svg>
