<svg xmlns="http://www.w3.org/2000/svg" xmlns:xlink="http://www.w3.org/1999/xlink" width="65" height="82" viewBox="0 0 65 82"><defs><path id="by43a" d="M1294 1009v-67h19v67z"/><path id="by43b" d="M1276 1016v-1h54v1z"/><path id="by43c" d="M1287 1014v-79h33v79"/><path id="by43d" d="M1265 936v-1h54v1z"/><path id="by43e" d="M1289 1014v-77h29v77z"/><path id="by43g" d="M1308 975.5a4.5 4.5 0 1 1 9 0 4.5 4.5 0 0 1-9 0z"/><path id="by43h" d="M1309 975.5a1.5 1.5 0 0 1 1.5-1.5h4a1.5 1.5 0 1 1 0 3h-4a1.5 1.5 0 0 1-1.5-1.5z"/><path id="by43i" d="M1312 937v-1h1v1z"/><path id="by43j" d="M1294 937v-1h1v1z"/><clipPath id="by43f"><use fill="#fff" xlink:href="#by43a"/></clipPath></defs><g><g transform="matrix(-1 0 0 1 1330 -934)"><g><use fill="#ededed" xlink:href="#by43b"/></g><g><use fill="#fff" fill-opacity="0" stroke="#98989d" stroke-miterlimit="50" stroke-width="2" xlink:href="#by43c"/></g><g><use fill="#5d5d60" xlink:href="#by43d"/></g><g><g><use fill="#98989d" xlink:href="#by43e"/></g><g opacity=".5"><use fill="#fff" fill-opacity="0" stroke="#fff" stroke-miterlimit="50" stroke-width="2" clip-path="url(&quot;#by43f&quot;)" xlink:href="#by43a"/></g><g><use fill="#98989d" xlink:href="#by43g"/></g><g transform="rotate(90 1282.5 975.5)"><use fill="#fff" xlink:href="#by43h"/></g><g><use fill="#5d5d60" xlink:href="#by43i"/></g><g><use fill="#5d5d60" xlink:href="#by43j"/></g></g></g></g></svg>