<svg xmlns="http://www.w3.org/2000/svg" xmlns:xlink="http://www.w3.org/1999/xlink" width="54" height="52" viewBox="0 0 54 52"><defs><path id="xhdxa" d="M633.242 1347.79h-44.8c-.849 0-1.54-.692-1.54-1.542v-6.48h3.252c3.482 0 6.314-2.837 6.314-6.324 0-3.488-2.832-6.325-6.314-6.325h-3.252v-6.48c0-.85.69-1.542 1.54-1.542h44.8zm-48.48-10.152a.638.638 0 0 1-.636-.638v-7.113c0-.352.286-.638.636-.638h5.386a4.194 4.194 0 0 1 4.184 4.195 4.194 4.194 0 0 1-4.184 4.194h-5.386zm8.85-22.387a1.6 1.6 0 0 1 1.597-1.6h7.033v3.316h-8.63zm29.567-15.041v16.757h-5.277v-10.638a1.064 1.064 0 1 0-2.126 0v10.638h-3.889v-10.638a1.064 1.064 0 1 0-2.126 0v10.638h-5.392v-16.757zm2.126 13.441h3.564a4.383 4.383 0 0 1 4.243 3.316h-7.807zm3.564-2.13h-3.564v-12.376c0-.588-.476-1.065-1.063-1.065h-20.937c-.587 0-1.063.477-1.063 1.065v12.376h-7.033a3.731 3.731 0 0 0-3.724 3.73v1.716h-3.043a3.673 3.673 0 0 0-3.666 3.672v6.48h-.013a2.769 2.769 0 0 0-2.763 2.768V1337a2.769 2.769 0 0 0 2.763 2.768h.013v6.48a3.673 3.673 0 0 0 3.666 3.672h45.863c.587 0 1.063-.477 1.063-1.065v-30.823c0-3.59-2.915-6.51-6.5-6.51z"/><path id="xhdxb" d="M590.238 1334.116a.675.675 0 0 1-.676-.673.675.675 0 0 1 1.352 0 .675.675 0 0 1-.676.673zm0-3.476a2.804 2.804 0 0 0 0 5.606 2.804 2.804 0 0 0 0-5.606z"/><path id="xhdxc" d="M611.287 1343.85h-.694a1.064 1.064 0 0 0 0 2.13h.694a1.064 1.064 0 0 0 0-2.13z"/><path id="xhdxd" d="M629.908 1343.85h-14.575a1.064 1.064 0 0 0 0 2.13h14.575a1.064 1.064 0 0 0 0-2.13z"/></defs><g><g transform="translate(-582 -1298)"><g><use fill="#fa7f4c" xlink:href="#xhdxa"/></g><g><use fill="#5d5d60" xlink:href="#xhdxb"/></g><g><use fill="#5d5d60" xlink:href="#xhdxc"/></g><g><use fill="#5d5d60" xlink:href="#xhdxd"/></g></g></g></svg>