<svg xmlns="http://www.w3.org/2000/svg" xmlns:xlink="http://www.w3.org/1999/xlink" width="151" height="90" viewBox="0 0 151 90"><defs><path id="gf8ea" d="M37.172 6018.505h5.795c.298 0 .492.065.57.197.093.187.134.398.12.608v11.93c-.01.092 0 .186.028.274.015.031.084.049.202.049h.433c.16-.017.32.014.463.09.149.123.217.359.217.71v4.334c0 .35-.06.573-.163.662a.786.786 0 0 1-.517.138h-1.427c-.298 0-.485-.063-.57-.197a1.283 1.283 0 0 1-.11-.607v-1.812c0-.229-.105-.343-.314-.343h-4.75c-.239 0-.35.146-.35.435v1.72c0 .35-.06.573-.165.662a.806.806 0 0 1-.522.138h-1.42c-.298 0-.493-.063-.57-.197a1.172 1.172 0 0 1-.119-.607v-4.334c0-.35.06-.572.163-.666a.842.842 0 0 1 .525-.134h.173c.19 0 .364-.244.507-.735a9.63 9.63 0 0 0 .237-1.156c.307-1.661.53-3.337.67-5.022a44.39 44.39 0 0 0 .157-3.667l.059-1.81c0-.318.051-.51.156-.57.164-.073.342-.105.52-.092zm3.591 12.735v-9.485c0-.183-.074-.274-.23-.274h-.978a.227.227 0 0 0-.192.073.246.246 0 0 0-.063.201l-.097 1.423c0 2.35-.112 3.98-.35 4.878a29.721 29.721 0 0 0-.643 3.152v.183c.022.107.12.162.27.162h2.015c.179.008.268-.102.268-.313z"/><path id="gf8eb" d="M47.005 6019.14a.73.73 0 0 1 .131-.513.616.616 0 0 1 .436-.124h3.67c1.45 0 2.542.403 3.274 1.21.646.715.965 1.662.965 2.836a4.094 4.094 0 0 1-.448 1.942 2.98 2.98 0 0 1-1.35 1.281v.09a3.384 3.384 0 0 1 1.699 1.51c.425.766.639 1.645.616 2.534 0 1.343-.312 2.41-.943 3.202-.748.93-1.887 1.393-3.418 1.392h-4.063c-.38 0-.569-.258-.569-.774zm3.771 5.421c.587 0 1.034-.149 1.323-.444.285-.287.442-.69.434-1.108a1.495 1.495 0 0 0-.347-1.036c-.297-.335-.774-.502-1.432-.502h-.607c-.223 0-.339.109-.339.32v2.495c0 .183.124.273.368.273zm.155 6.97c.669 0 1.176-.196 1.51-.56.347-.374.533-.884.516-1.409a2.099 2.099 0 0 0-.458-1.392c-.37-.428-.894-.64-1.568-.64h-.818c-.138 0-.225.04-.253.114a.764.764 0 0 0-.052.277v3.342a.25.25 0 0 0 .062.197.218.218 0 0 0 .184.072z"/><path id="gf8ec" d="M59.002 6033.697v-14.399c-.01-.186.015-.372.074-.548.104-.17.305-.25.604-.25h6.38c.297 0 .49.065.567.197.09.188.13.397.12.607v1.622a.554.554 0 0 1-.148.393.615.615 0 0 1-.455.147h-3.911a.302.302 0 0 0-.264.093.328.328 0 0 0-.085.275v2.4c0 .273.066.411.208.411h3.075a.442.442 0 0 1 .32.114.4.4 0 0 1 .127.32v2.08c0 .303-.127.456-.378.456h-3.098c-.172 0-.254.13-.254.393v3.246c0 .18.066.273.208.273h4.376a.496.496 0 0 1 .432.148.75.75 0 0 1 .097.424v1.598a1.26 1.26 0 0 1-.082.549c-.096.167-.297.25-.596.25H59.68a.785.785 0 0 1-.462-.093c-.14-.12-.216-.356-.216-.706z"/><path id="gf8ed" d="M70.667 6018.5h3.504c1.922 0 3.275.6 4.058 1.802.514.786.771 1.824.771 3.085 0 1.554-.427 2.72-1.28 3.496-.855.777-1.973 1.165-3.356 1.165h-1.229c-.187 0-.288.114-.288.344v5.306c0 .35-.058.572-.163.662a.801.801 0 0 1-.515.136H70.67a.773.773 0 0 1-.455-.093c-.139-.12-.214-.355-.214-.705v-14.394c-.01-.186.015-.373.075-.549.088-.174.296-.255.59-.255zm2.386 6.581h1.123c.462.01.908-.175 1.238-.515.345-.349.533-.835.515-1.338a1.925 1.925 0 0 0-.374-1.232c-.31-.381-.774-.574-1.407-.574h-1.06c-.163 0-.243.1-.243.3v3.13c.002.152.067.229.208.229z"/><path id="gf8ee" d="M83.284 6034.49h-1.562a.905.905 0 0 1-.495-.092c-.15-.12-.223-.356-.223-.706v-14.394a1.251 1.251 0 0 1 .078-.548c.11-.17.323-.25.64-.25h1.606c.313 0 .511.065.602.197.09.19.13.398.116.607v7.467l2.761-7.467c.07-.237.186-.457.341-.65a.655.655 0 0 1 .466-.15h1.663c.316 0 .513.065.592.196.098.188.142.398.126.608v14.394c.017.186-.01.374-.078.548-.11.167-.324.25-.64.25h-1.605c-.315 0-.514-.065-.602-.197a1.2 1.2 0 0 1-.119-.607v-7.837l-2.722 7.837a1.243 1.243 0 0 1-.37.65.96.96 0 0 1-.575.144z"/><path id="gf8ef" d="M100.67 6018.5h3.502c1.922 0 3.274.6 4.057 1.802.515.786.771 1.824.771 3.085 0 1.554-.427 2.72-1.28 3.496-.854.777-1.972 1.165-3.355 1.165h-1.228c-.188 0-.289.114-.289.344v5.306c0 .35-.058.572-.163.662a.787.787 0 0 1-.514.136h-1.498a.773.773 0 0 1-.455-.093c-.14-.12-.213-.355-.213-.705v-14.394a1.174 1.174 0 0 1 .082-.549c.097-.174.29-.255.582-.255zm2.392 6.581h1.11c.462.012.908-.174 1.237-.515.345-.349.533-.835.515-1.338a1.926 1.926 0 0 0-.374-1.232c-.31-.381-.773-.574-1.406-.574h-1.045c-.168 0-.25.1-.25.3v3.13c0 .152.065.229.213.229z"/><path id="gf8eg" d="M111.004 6033.698v-14.4a1.293 1.293 0 0 1 .076-.548c.104-.17.305-.25.602-.25h6.383c.298 0 .485.065.569.197.089.188.13.397.12.607v1.622a.554.554 0 0 1-.149.393.629.629 0 0 1-.454.147h-3.922a.306.306 0 0 0-.262.095.332.332 0 0 0-.087.273v2.4c0 .273.074.411.216.411h3.077a.452.452 0 0 1 .32.114c.086.082.133.2.127.32v2.08c0 .303-.127.456-.379.456h-3.107c-.165 0-.254.13-.254.394v3.245c0 .18.074.273.216.273h4.379c.221 0 .365.05.424.148a.751.751 0 0 1 .097.424v1.599c.015.186-.01.373-.074.548-.105.166-.307.25-.605.25h-6.631a.788.788 0 0 1-.46-.093c-.154-.12-.222-.356-.222-.705z"/><path id="gf8eh" d="M121.64 6018.501h6.671a.968.968 0 0 1 .504.112.342.342 0 0 1 .185.3v2.057c0 .365-.154.548-.472.548h-4.274c-.172 0-.264.098-.264.297v11.834c0 .393-.04.621-.125.712a.526.526 0 0 1-.42.135h-1.884a.534.534 0 0 1-.395-.157.754.754 0 0 1-.162-.55v-14.6a.612.612 0 0 1 .217-.517c.118-.1.264-.159.418-.17z"/><path id="gf8ei" d="M133.288 6034.49h-1.56a.91.91 0 0 1-.496-.092c-.148-.12-.228-.356-.228-.706v-14.394a1.205 1.205 0 0 1 .086-.548c.102-.17.314-.25.639-.25h1.603c.315 0 .519.065.601.197.098.187.142.397.126.607v7.467l2.758-7.467a1.93 1.93 0 0 1 .338-.65.643.643 0 0 1 .465-.15h1.65c.314 0 .518.065.6.196.098.188.142.398.127.608v14.394c.014.187-.016.375-.089.548-.102.167-.322.25-.637.25h-1.603c-.314 0-.52-.065-.601-.197a1.13 1.13 0 0 1-.126-.607v-7.837l-2.717 7.837c-.047.25-.175.478-.365.65a.958.958 0 0 1-.571.144z"/><path id="gf8ej" d="M142 6028.63v-4.25c0-1.49.173-2.655.537-3.489.687-1.595 2.01-2.392 3.969-2.391 1.827 0 3.1.715 3.822 2.145.448.91.672 2.155.672 3.735v4.244c0 1.476-.179 2.63-.537 3.46-.687 1.608-2.007 2.413-3.961 2.416-1.533 0-2.663-.48-3.402-1.445-.738-.965-1.098-2.434-1.098-4.431zm5.946-.378v-3.484c0-1.155-.056-1.953-.183-2.373-.2-.658-.615-.983-1.257-.983-.642 0-1.074.32-1.265.962-.127.418-.183 1.218-.183 2.396v3.49c0 1.164.056 1.953.183 2.372.189.656.615.983 1.265.983.65 0 1.06-.32 1.257-.962.129-.425.183-1.223.183-2.401z"/><path id="gf8ek" d="M153.716 6018.5h1.608c.315 0 .522.065.603.196.095.189.136.399.118.608v4.409a.837.837 0 0 0 .056.32c.039.073.117.114.262.114h2.243l.149-.024a.509.509 0 0 0 .182-.457v-4.362a1.201 1.201 0 0 1 .087-.549c.11-.169.324-.25.641-.25h1.608c.316 0 .515.066.603.197.092.19.133.399.119.608v14.392c.018.187-.011.376-.087.548-.102.167-.315.25-.633.25h-1.608c-.315 0-.514-.065-.603-.196a1.19 1.19 0 0 1-.127-.608v-5.99c0-.242-.102-.364-.331-.364h-2.241c-.215 0-.316.114-.316.344v6.006c0 .35-.056.572-.167.663a.908.908 0 0 1-.552.135h-1.608a.881.881 0 0 1-.489-.092c-.15-.12-.229-.356-.229-.706V6019.3a1.224 1.224 0 0 1 .08-.549c.103-.17.318-.251.632-.251z"/><path id="gf8el" d="M164.008 6028.63v-4.25c0-1.49.18-2.655.536-3.489.688-1.595 2.009-2.392 3.963-2.391 1.822 0 3.093.715 3.814 2.145.45.91.679 2.155.679 3.735v4.244c0 1.476-.175 2.63-.536 3.46-.688 1.608-2.006 2.413-3.953 2.416-1.532 0-2.66-.48-3.393-1.445-.733-.965-1.118-2.434-1.118-4.431zm5.934-.378v-3.484c0-1.155-.064-1.953-.18-2.373-.19-.658-.617-.983-1.255-.983-.638 0-1.074.32-1.265.962-.116.418-.18 1.218-.18 2.396v3.49c0 1.164.064 1.953.18 2.372.189.656.617.983 1.265.983.648 0 1.064-.32 1.255-.962.118-.425.18-1.223.18-2.401z"/><path id="gf8em" d="M176.005 6033.725v-14.586a.73.73 0 0 1 .131-.513.64.64 0 0 1 .436-.124h3.668c1.453 0 2.549.394 3.277 1.21.654.715.973 1.662.973 2.836.013.68-.146 1.35-.458 1.942a2.973 2.973 0 0 1-1.343 1.282v.09a3.385 3.385 0 0 1 1.7 1.51 5.04 5.04 0 0 1 .61 2.534c0 1.343-.313 2.41-.945 3.202-.739.928-1.888 1.392-3.413 1.392h-4.065c-.38 0-.569-.258-.569-.775zm3.779-9.164c.596 0 1.04-.148 1.329-.444.285-.288.444-.69.436-1.109a1.523 1.523 0 0 0-.342-1.032c-.305-.334-.786-.501-1.445-.501h-.603c-.23 0-.34.108-.34.32v2.495c0 .183.117.273.357.273zm-.727 6.97h.875c.667 0 1.173-.196 1.512-.56a2.01 2.01 0 0 0 .507-1.41 2.097 2.097 0 0 0-.45-1.39c-.368-.43-.89-.642-1.57-.642h-.819c-.138 0-.217.042-.252.114a.776.776 0 0 0-.044.278v3.341c.003.177.083.27.241.27z"/><path id="gf8en" d="M87.556 5955.5L81 5960.833v44.667a81.623 81.623 0 0 1 5.506-1.708l.618-.168.403-.106h.013zm43.44 9.584l-10.843-5.367v41.231l.233.021c.407.039.812.08 1.215.121l.276.03c.388.042.773.086 1.154.134l.336.042c.355.045.708.092 1.06.14l.454.064.908.135.6.094.743.121.762.131.573.104.898.17.409.08c.35.07.698.14 1.045.213l.181.037z"/><path id="gf8eo" d="M90 5966.785v35.715a88.812 88.812 0 0 1 14.578-2.224v-33.489zm9.89-18.285v16.568h6.726v35.084a95.323 95.323 0 0 1 11.384.132V5948.5z"/><path id="gf8ep" d="M100.757 5987.229c.087.718.556 1.271 1.112 1.271.627 0 1.131-.675 1.131-1.502s-.502-1.498-1.13-1.498c-.373.005-.717.235-.91.61h-.053a5.59 5.59 0 0 0-2.69.089c-.163.072-.252.28-.204.477.038.232.132.446.27.618.097.134.253.188.396.135h.016a2.476 2.476 0 0 1 1.906-.248z"/><path id="gf8eq" d="M114.743 5979.229c.087.718.558 1.271 1.125 1.271.628 0 1.132-.673 1.132-1.5s-.504-1.5-1.132-1.5c-.374.003-.72.232-.913.605h-.054a5.61 5.61 0 0 0-2.562.055c-.14.037-.278.071-.326.283-.085.378.26 1.154.649.997a2.485 2.485 0 0 1 1.912-.248z"/><path id="gf8er" d="M127.202 5983.06c.065.73.443 1.344.895 1.43.5.092.903-.5.903-1.324 0-.825-.402-1.57-.903-1.658-.298-.049-.59.139-.731.471l-.042-.013c-.345-.136-1.584-.515-2.093-.337a.341.341 0 0 0-.173.13.585.585 0 0 0-.05.355c.042.402.297.924.54.844h.018c.53-.27 1.129-.232 1.636.102z"/><path id="gf8es" d="M84.225 5981.46c.11.698.517 1.14.972 1.02.492-.13.852-.903.798-1.72-.055-.818-.492-1.375-.99-1.24a1.16 1.16 0 0 0-.685.798h-.037a4.122 4.122 0 0 0-2.139.665.39.39 0 0 0-.142.286c-.029.31.243 1.114.584.846.497-.43.88-.71 1.509-.656z"/><path id="gf8et" d="M138.75 6007.872c.05.052.094.108.133.167a.75.75 0 0 1 .114.47c-.04.176-.124.34-.244.477-.86.93-3.373 1.158-4.538 1.341-.901.143-1.817.251-2.733.31a17.713 17.713 0 0 1-5.126-.352 92.506 92.506 0 0 0-1.397-.332 96.541 96.541 0 0 0-21.408-2.346c-14.266 0-27.343 2.964-37.524 7.893H66c10.782-7.344 26.794-12 44.672-12 9.718 0 18.883 1.376 26.957 3.81l.477.147c.242.096.461.237.645.415z"/></defs><g><g transform="translate(-34 -5948)"><g><use fill="#fff" xlink:href="#gf8ea"/></g><g><use fill="#fff" xlink:href="#gf8eb"/></g><g><use fill="#fff" xlink:href="#gf8ec"/></g><g><use fill="#fff" xlink:href="#gf8ed"/></g><g><use fill="#fff" xlink:href="#gf8ee"/></g><g><use fill="#fff" xlink:href="#gf8ef"/></g><g><use fill="#fff" xlink:href="#gf8eg"/></g><g><use fill="#fff" xlink:href="#gf8eh"/></g><g><use fill="#fff" xlink:href="#gf8ei"/></g><g><use fill="#fff" xlink:href="#gf8ej"/></g><g><use fill="#fff" xlink:href="#gf8ek"/></g><g><use fill="#fff" xlink:href="#gf8el"/></g><g><use fill="#fff" xlink:href="#gf8em"/></g><g><use fill="#fff" xlink:href="#gf8en"/></g><g><use fill="#fff" xlink:href="#gf8eo"/></g><g><use fill="#5d5d60" xlink:href="#gf8ep"/></g><g><use fill="#5d5d60" xlink:href="#gf8eq"/></g><g><use fill="#5d5d60" xlink:href="#gf8er"/></g><g><use fill="#5d5d60" xlink:href="#gf8es"/></g><g><use fill="#fff" xlink:href="#gf8et"/></g></g></g></svg>